<?xml version="1.0" encoding="UTF-8" standalone="no"?>
<svg
   xmlns:dc="http://purl.org/dc/elements/1.1/"
   xmlns:cc="http://creativecommons.org/ns#"
   xmlns:rdf="http://www.w3.org/1999/02/22-rdf-syntax-ns#"
   xmlns:svg="http://www.w3.org/2000/svg"
   xmlns="http://www.w3.org/2000/svg"
   xmlns:sodipodi="http://sodipodi.sourceforge.net/DTD/sodipodi-0.dtd"
   xmlns:inkscape="http://www.inkscape.org/namespaces/inkscape"
   height="184.69099"
   width="580.52399"
   inkscape:version="1.1-dev (bc69992, 2020-04-15)"
   sodipodi:docname="fels.svg"
   xml:space="preserve"
   viewBox="0 0 580.52398 184.69099"
   y="0px"
   x="0px"
   id="Camada_1"
   version="1.1"><metadata
   id="metadata105"><rdf:RDF><cc:Work
       rdf:about=""><dc:format>image/svg+xml</dc:format><dc:type
         rdf:resource="http://purl.org/dc/dcmitype/StillImage" /><dc:title></dc:title></cc:Work></rdf:RDF></metadata><defs
   id="defs103" /><sodipodi:namedview
   width="580.524px"
   inkscape:current-layer="Camada_1"
   inkscape:window-maximized="0"
   inkscape:window-y="25"
   inkscape:window-x="0"
   inkscape:cy="105.13466"
   inkscape:cx="306.08348"
   inkscape:zoom="1.5583984"
   showgrid="false"
   id="namedview101"
   inkscape:window-height="618"
   inkscape:window-width="1267"
   inkscape:pageshadow="2"
   inkscape:pageopacity="0"
   guidetolerance="10"
   gridtolerance="10"
   objecttolerance="10"
   borderopacity="1"
   bordercolor="#666666"
   pagecolor="#ffffff" />
<style
   id="style10"
   type="text/css">
	.st0{fill:#009870;}
	.st1{fill:#F9B233;}
	.st2{fill:#7D4E24;}
	.st3{fill:#14B2A8;}
</style>
<g
   transform="translate(-159.10983,-198.96923)"
   id="g98">
	<g
   id="g72">
		<path
   id="path12"
   d="m 372.42,321.84 h 7.84 c 0.44,0 0.61,0.2 0.44,0.51 l -0.48,0.85 c -0.2,0.34 -0.54,0.48 -1.09,0.48 h -6.72 v 7.33 c 0,1.32 0.51,1.53 2.17,1.87 0.44,0.07 0.51,0.34 0.37,0.61 l -0.27,0.61 c -0.1,0.14 -0.27,0.24 -0.58,0.24 h -7.13 c -0.27,0 -0.61,-0.07 -0.44,-0.51 l 0.2,-0.54 c 0.14,-0.37 0.41,-0.41 0.65,-0.47 0.85,-0.14 1.73,-0.65 1.73,-1.8 v -16.84 c 0,-1.32 -0.68,-1.83 -2.14,-2.07 -0.51,-0.1 -0.81,-0.2 -0.65,-0.58 l 0.27,-0.58 c 0.14,-0.3 0.37,-0.37 0.58,-0.37 h 13.27 c 0.65,0 1.05,0.37 0.98,0.85 v 2.48 c 0,0.1 -0.07,0.2 -0.17,0.31 l -0.61,0.51 c -0.51,0.41 -1.02,-2.31 -3.29,-2.31 h -4.96 v 9.42 z" />
		<path
   id="path14"
   d="m 399.47,330.77 c 0,0.92 0.17,1.39 0.95,1.76 0.65,0.27 1.43,0.24 1.29,0.68 l -0.27,0.81 c -0.14,0.34 -0.44,0.31 -0.78,0.31 h -3.29 c -0.68,0.03 -0.95,-0.37 -0.95,-1.05 v -3.33 h -0.07 c -1.09,2.89 -3.77,4.79 -6.31,4.79 -4.07,0 -6.48,-3.8 -6.48,-7.88 0,-5.36 4.11,-9.91 9.3,-9.91 1.66,0 3.29,0.37 4.75,0.92 0.98,0.37 1.87,0.64 1.87,2.85 v 10.05 z m -12.66,-4.52 c 0,3.63 1.46,6.48 3.9,6.48 2.58,0 5.7,-3.56 5.7,-8.59 0,-3.12 -0.37,-5.74 -3.73,-5.74 -3.8,0.01 -5.87,4.12 -5.87,7.85 z" />
		<path
   id="path16"
   d="m 417.67,317.36 v 1.6 l -9.78,13.68 h 5.43 c 2.99,0 3.26,-2.58 3.73,-2.48 l 0.85,0.27 c 0.14,0.03 0.2,0.14 0.2,0.27 v 2.85 c 0,0.51 -0.64,0.78 -1.56,0.78 h -12.02 l -0.58,-1.26 10.63,-14.16 h -4.55 c -2.27,0 -2.78,2.99 -3.29,2.58 l -0.61,-0.51 c -0.1,-0.1 -0.17,-0.2 -0.17,-0.31 v -2.48 c -0.07,-0.47 0.34,-0.85 0.98,-0.85 h 10.74 z" />
		<path
   id="path18"
   d="m 423.74,325.98 c 0,3.39 1.83,6.79 5.47,6.79 1.63,0 2.72,-0.44 4.07,-1.56 0.27,-0.24 0.92,0.3 0.78,0.54 l -0.92,1.7 c -0.17,0.27 -0.31,0.54 -0.65,0.71 -0.75,0.34 -2.44,0.58 -3.67,0.58 -5.16,0 -8.35,-4.07 -8.35,-8.59 0,-5.8 3.46,-9.2 7.91,-9.2 4.14,0 6.49,3.12 6.49,7.67 0,0.61 -0.31,1.36 -0.78,1.36 z m 6.56,-1.59 c 1.12,0 1.63,-0.54 1.63,-1.49 0,-3.29 -1.87,-4.41 -3.6,-4.41 -2.85,0 -4.58,2.82 -4.58,5.91 h 6.55 z" />
		<path
   id="path20"
   d="m 443.26,320.79 h 0.07 c 1.87,-3.23 4.72,-3.84 6.59,-3.84 3.12,0 4.92,1.77 4.92,5.81 v 8.25 c 0,1.32 0.51,1.53 2.17,1.87 0.44,0.07 0.51,0.34 0.37,0.61 l -0.27,0.61 c -0.1,0.14 -0.27,0.24 -0.58,0.24 h -6.86 c -0.27,0 -0.61,-0.07 -0.44,-0.51 l 0.2,-0.54 c 0.14,-0.37 0.41,-0.41 0.64,-0.47 0.82,-0.14 1.7,-0.65 1.7,-1.8 v -6.42 c 0,-3.87 -0.68,-5.47 -3.19,-5.47 -2.72,0 -5.33,2.41 -5.33,9.64 v 2.24 c 0,1.32 0.51,1.53 2.14,1.87 0.44,0.07 0.51,0.34 0.37,0.61 l -0.27,0.61 c -0.1,0.14 -0.27,0.24 -0.58,0.24 h -6.86 c -0.27,0 -0.61,-0.07 -0.44,-0.51 l 0.2,-0.54 c 0.14,-0.37 0.41,-0.41 0.64,-0.47 0.85,-0.14 1.73,-0.65 1.73,-1.8 V 320.7 c 0,-1.32 -0.51,-1.53 -2.07,-1.83 -0.34,-0.1 -0.68,-0.24 -0.48,-0.65 l 0.31,-0.61 c 0.1,-0.24 0.31,-0.24 0.51,-0.24 h 3.97 c 0.37,0 0.81,-0.03 0.81,0.68 v 2.74 z" />
		<path
   id="path22"
   d="m 473,312.71 c 0,-1.32 -0.51,-1.53 -2.07,-1.83 -0.34,-0.1 -0.68,-0.24 -0.48,-0.65 l 0.31,-0.61 c 0.1,-0.24 0.31,-0.24 0.51,-0.24 h 3.87 c 0.68,0 0.95,0.37 0.95,1.05 v 20.34 c 0,0.92 0.17,1.39 0.95,1.76 0.64,0.27 1.43,0.24 1.29,0.68 l -0.27,0.81 c -0.14,0.34 -0.44,0.31 -0.78,0.31 h -3.29 c -0.68,0.03 -0.95,-0.37 -0.95,-1.05 v -1.97 h -0.07 c -1.05,1.77 -3.06,3.43 -5.5,3.43 -3.7,0 -7.3,-2.99 -7.3,-8.32 0,-4.92 4.11,-9.47 9.13,-9.47 1.56,0 2.61,0.31 3.7,0.71 z m -9.57,13.54 c 0,3.63 1.83,6.48 4.45,6.48 3.33,0 5.16,-2.78 5.16,-7.67 0,-4.58 -0.68,-6.65 -3.73,-6.65 -3.81,0 -5.88,4.11 -5.88,7.84 z" />
		<path
   id="path24"
   d="m 496.36,330.77 c 0,0.92 0.17,1.39 0.95,1.76 0.64,0.27 1.43,0.24 1.29,0.68 l -0.27,0.81 c -0.14,0.34 -0.44,0.31 -0.78,0.31 h -3.29 c -0.68,0.03 -0.95,-0.37 -0.95,-1.05 v -3.33 h -0.07 c -1.09,2.89 -3.77,4.79 -6.32,4.79 -4.07,0 -6.48,-3.8 -6.48,-7.88 0,-5.36 4.11,-9.91 9.3,-9.91 1.66,0 3.29,0.37 4.75,0.92 0.98,0.37 1.87,0.64 1.87,2.85 z m -12.67,-4.52 c 0,3.63 1.46,6.48 3.9,6.48 2.58,0 5.7,-3.56 5.7,-8.59 0,-3.12 -0.37,-5.74 -3.73,-5.74 -3.8,0.01 -5.87,4.12 -5.87,7.85 z" />
		<path
   id="path26"
   d="m 517,320.52 h 7.84 c 0.44,0 0.61,0.2 0.44,0.51 l -0.47,0.85 c -0.2,0.37 -0.54,0.48 -1.09,0.48 H 517 v 6.99 c 0,2.85 0.61,3.16 2.07,3.16 h 2.99 c 3.5,0 3.97,-2.82 4.45,-2.68 l 0.85,0.27 c 0.14,0.03 0.2,0.17 0.2,0.31 v 3.09 c 0,0.54 -0.65,0.85 -1.56,0.85 h -10.5 c -1.05,0 -1.8,0.03 -1.8,-2.34 v -17.82 c 0,-1.32 -0.68,-1.83 -2.14,-2.07 -0.51,-0.1 -0.81,-0.2 -0.65,-0.58 l 0.27,-0.58 c 0.14,-0.3 0.37,-0.37 0.58,-0.37 h 13.27 c 0.64,0 1.05,0.37 0.98,0.85 v 2.48 c 0,0.1 -0.07,0.2 -0.17,0.31 l -0.61,0.51 c -0.51,0.41 -1.02,-2.31 -3.29,-2.31 H 517 Z" />
		<path
   id="path28"
   d="m 529.76,329.61 c 0,-0.34 -0.03,-0.61 0.14,-0.68 l 0.64,-0.2 c 0.44,-0.17 0.41,1.09 1.09,2.24 0.64,1.6 2.04,2.34 3.46,2.34 1.73,0 3.53,-1.02 3.43,-3.19 -0.07,-1.73 -2.75,-2.99 -4.31,-4.04 -1.8,-1.26 -3.97,-2 -3.97,-4.58 0,-3.09 3.5,-4.55 5.84,-4.55 1.39,0 2.58,0.14 3.53,0.34 0.58,0.14 0.88,0.51 0.88,0.95 v 2.34 c 0,0.1 -0.07,0.2 -0.14,0.31 l -0.58,0.48 c -0.2,0.2 -0.68,-0.88 -1.09,-1.6 -0.54,-0.88 -1.6,-1.36 -2.82,-1.36 -1.46,0 -2.85,0.85 -2.78,2.27 0.07,1.05 1.26,1.7 3.56,3.12 3.06,2.04 4.79,3.19 4.79,5.74 0,3.84 -3.53,5.19 -6.25,5.19 -1.83,0 -3.36,-0.24 -4.52,-0.95 -0.37,-0.24 -0.92,-0.48 -0.92,-1.05 v -3.12 z" />
		<path
   id="path30"
   d="m 557.8,320.62 c 0,0.1 -0.07,0.2 -0.14,0.34 l -0.61,0.48 c -0.2,0.17 -0.68,-0.92 -1.09,-1.6 -0.54,-0.92 -1.63,-1.39 -3.12,-1.39 -3.6,0 -5.47,3.39 -5.47,7.2 0,3.6 2.07,7.13 5.77,7.13 1.66,0 2.75,-0.44 4.11,-1.56 0.17,-0.14 0.88,0.37 0.78,0.54 l -0.92,1.7 c -0.17,0.27 -0.31,0.54 -0.68,0.71 -0.71,0.34 -2.44,0.58 -3.63,0.58 -5.5,0 -8.69,-4.07 -8.69,-8.89 0,-5.23 3.56,-8.9 8.83,-8.9 1.77,0 2.95,0.14 3.94,0.34 0.61,0.17 0.98,0.54 0.92,0.98 z" />
		<path
   id="path32"
   d="m 577.05,325.51 c 0,5.36 -3.87,9.23 -8.86,9.23 -5.19,0 -8.01,-4.48 -8.01,-8.56 0,-6.25 4.52,-9.23 8.86,-9.23 4.78,0 8.01,3.87 8.01,8.56 z m -13.61,-0.65 c 0,5.47 2.72,8.28 5.3,8.28 3.8,0 5.06,-3.33 5.06,-7.2 0,-4.38 -2.07,-7.4 -5.16,-7.4 -3.24,0.01 -5.2,2.86 -5.2,6.32 z" />
		<path
   id="path34"
   d="m 585.43,331.01 c 0,1.32 0.51,1.53 2.14,1.87 0.44,0.07 0.51,0.34 0.37,0.61 l -0.27,0.61 c -0.1,0.14 -0.27,0.24 -0.58,0.24 h -6.86 c -0.27,0 -0.61,-0.07 -0.44,-0.51 l 0.2,-0.54 c 0.14,-0.37 0.41,-0.41 0.64,-0.47 0.85,-0.14 1.73,-0.65 1.73,-1.8 v -18.3 c 0,-1.32 -0.51,-1.53 -2.07,-1.83 -0.34,-0.1 -0.68,-0.24 -0.48,-0.65 l 0.31,-0.61 c 0.1,-0.24 0.31,-0.24 0.51,-0.24 h 3.9 c 0.68,0 0.88,0.34 0.88,1.02 v 20.6 z" />
		<path
   id="path36"
   d="m 606.65,330.77 c 0,0.92 0.17,1.39 0.95,1.76 0.64,0.27 1.43,0.24 1.29,0.68 l -0.27,0.81 c -0.14,0.34 -0.44,0.31 -0.78,0.31 h -3.29 c -0.68,0.03 -0.95,-0.37 -0.95,-1.05 v -3.33 h -0.07 c -1.09,2.89 -3.77,4.79 -6.32,4.79 -4.07,0 -6.48,-3.8 -6.48,-7.88 0,-5.36 4.11,-9.91 9.3,-9.91 1.66,0 3.29,0.37 4.75,0.92 0.98,0.37 1.87,0.64 1.87,2.85 z m -12.66,-4.52 c 0,3.63 1.46,6.48 3.9,6.48 2.58,0 5.7,-3.56 5.7,-8.59 0,-3.12 -0.37,-5.74 -3.73,-5.74 -3.8,0.01 -5.87,4.12 -5.87,7.85 z" />
		<path
   id="path38"
   d="m 366.81,374.12 c 0.14,-0.37 0.41,-0.41 0.65,-0.47 0.85,-0.14 1.73,-0.65 1.73,-1.8 v -17.11 c 0,-1.32 -0.51,-1.53 -2.17,-1.87 -0.44,-0.07 -0.51,-0.34 -0.37,-0.61 l 0.27,-0.61 c 0.1,-0.14 0.27,-0.24 0.58,-0.24 h 7.13 c 0.27,0 0.61,0.07 0.44,0.51 l -0.2,0.54 c -0.14,0.37 -0.41,0.41 -0.65,0.48 -0.85,0.14 -1.73,0.64 -1.73,1.8 v 15.45 c 0,2.85 0.61,3.16 2.07,3.16 h 2.99 c 3.5,0 3.97,-2.82 4.45,-2.68 l 0.85,0.27 c 0.14,0.03 0.2,0.17 0.2,0.31 v 3.09 c 0,0.54 -0.65,0.85 -1.56,0.85 h -14.43 c -0.27,0 -0.61,-0.07 -0.44,-0.51 z" />
		<path
   id="path40"
   d="m 401.37,371.6 c 0,0.92 0.17,1.39 0.95,1.76 0.65,0.27 1.43,0.24 1.29,0.68 l -0.27,0.81 c -0.14,0.34 -0.44,0.31 -0.78,0.31 h -3.29 c -0.68,0.03 -0.95,-0.37 -0.95,-1.05 v -3.33 h -0.07 c -1.09,2.89 -3.77,4.79 -6.31,4.79 -4.07,0 -6.48,-3.8 -6.48,-7.88 0,-5.36 4.11,-9.91 9.3,-9.91 1.66,0 3.29,0.37 4.75,0.92 0.98,0.37 1.87,0.64 1.87,2.85 v 10.05 z m -12.66,-4.51 c 0,3.63 1.46,6.48 3.9,6.48 2.58,0 5.7,-3.56 5.7,-8.59 0,-3.12 -0.37,-5.74 -3.73,-5.74 -3.8,0.01 -5.87,4.11 -5.87,7.85 z" />
		<path
   id="path42"
   d="m 407.55,379.51 c 0.31,-0.51 0.54,-0.85 0.88,-0.34 1.09,1.66 3.19,2.55 5.3,2.55 2.95,0 5.47,-1.7 5.47,-7.13 v -3.8 h -0.07 c -1.09,2.89 -3.77,4.79 -6.31,4.79 -4.07,0 -6.48,-3.8 -6.48,-7.88 0,-5.36 4.11,-9.91 9.3,-9.91 1.66,0 3.29,0.37 4.75,0.92 0.98,0.37 1.87,0.64 1.87,2.85 v 12.12 c 0,7.23 -3.26,9.98 -8.52,9.98 -3.23,0 -4.85,-0.75 -6.28,-1.46 -0.65,-0.34 -1.09,-0.58 -0.68,-1.29 z m 2.04,-12.46 c 0,3.63 1.46,6.48 3.9,6.48 2.58,0 5.7,-3.56 5.7,-8.59 0,-3.12 -0.37,-5.74 -3.73,-5.74 -3.8,0.01 -5.87,4.12 -5.87,7.85 z" />
		<path
   id="path44"
   d="m 442.79,366.34 c 0,5.36 -3.87,9.23 -8.86,9.23 -5.19,0 -8.01,-4.48 -8.01,-8.56 0,-6.25 4.52,-9.23 8.86,-9.23 4.78,0.01 8.01,3.88 8.01,8.56 z m -13.62,-0.64 c 0,5.47 2.72,8.28 5.3,8.28 3.8,0 5.06,-3.33 5.06,-7.2 0,-4.38 -2.07,-7.4 -5.16,-7.4 -3.23,0 -5.2,2.85 -5.2,6.32 z" />
		<path
   id="path46"
   d="m 461.63,371.6 c 0,0.92 0.17,1.39 0.95,1.76 0.64,0.27 1.43,0.24 1.29,0.68 l -0.27,0.81 c -0.14,0.34 -0.44,0.31 -0.78,0.31 h -3.29 c -0.68,0.03 -0.95,-0.37 -0.95,-1.05 v -3.33 h -0.07 c -1.09,2.89 -3.77,4.79 -6.32,4.79 -4.07,0 -6.48,-3.8 -6.48,-7.88 0,-5.36 4.11,-9.91 9.3,-9.91 1.66,0 3.29,0.37 4.75,0.92 0.98,0.37 1.87,0.64 1.87,2.85 z m -12.66,-4.51 c 0,3.63 1.46,6.48 3.9,6.48 2.58,0 5.7,-3.56 5.7,-8.59 0,-3.12 -0.37,-5.74 -3.73,-5.74 -3.8,0.01 -5.87,4.11 -5.87,7.85 z" />
		<path
   id="path48"
   d="m 489.5,353.54 c 0,-1.32 -0.51,-1.53 -2.07,-1.83 -0.34,-0.1 -0.68,-0.24 -0.48,-0.65 l 0.31,-0.61 c 0.1,-0.24 0.31,-0.24 0.51,-0.24 h 3.87 c 0.68,0 0.95,0.37 0.95,1.05 v 20.34 c 0,0.92 0.17,1.39 0.95,1.76 0.64,0.27 1.43,0.24 1.29,0.68 l -0.27,0.81 c -0.14,0.34 -0.44,0.31 -0.78,0.31 h -3.29 c -0.68,0.03 -0.95,-0.37 -0.95,-1.05 v -1.97 h -0.07 c -1.05,1.77 -3.06,3.43 -5.5,3.43 -3.7,0 -7.3,-2.99 -7.3,-8.32 0,-4.92 4.11,-9.47 9.13,-9.47 1.56,0 2.61,0.31 3.7,0.71 z m -9.57,13.55 c 0,3.63 1.83,6.48 4.45,6.48 3.33,0 5.16,-2.78 5.16,-7.67 0,-4.58 -0.68,-6.65 -3.73,-6.65 -3.81,0 -5.88,4.1 -5.88,7.84 z" />
		<path
   id="path50"
   d="m 513.81,366.34 c 0,5.36 -3.87,9.23 -8.86,9.23 -5.19,0 -8.01,-4.48 -8.01,-8.56 0,-6.25 4.52,-9.23 8.86,-9.23 4.78,0.01 8.01,3.88 8.01,8.56 z m -13.62,-0.64 c 0,5.47 2.72,8.28 5.3,8.28 3.8,0 5.06,-3.33 5.06,-7.2 0,-4.38 -2.07,-7.4 -5.16,-7.4 -3.23,0 -5.2,2.85 -5.2,6.32 z" />
		<path
   id="path52"
   d="m 539.06,356.46 c -0.27,0.24 -0.92,-1.15 -1.36,-2.04 -0.68,-1.39 -1.7,-1.9 -3.23,-1.9 -1.66,0 -3.43,1.02 -3.7,2.75 -0.37,2.44 1.39,3.84 4.18,5.7 3.7,2.48 5.81,4.21 5.94,8.01 0.14,4.35 -4.07,6.59 -7.91,6.59 -1.9,0 -3.29,-0.27 -4.38,-0.61 -1.77,-0.54 -1.77,-0.58 -1.77,-1.46 v -3.29 c 0,-0.37 -0.14,-0.88 0.2,-1.02 l 0.92,-0.31 c 0.48,-0.14 0.48,1.36 1.32,2.78 0.65,1.49 2.17,2.17 3.8,2.17 2.75,0 4.45,-1.87 4.55,-4.24 0.24,-3.05 -3.22,-5.16 -5.33,-6.65 -2,-1.43 -4.79,-2.99 -4.79,-6.31 0,-2.38 2.75,-5.64 7.23,-5.64 1.56,0 2.78,0.27 3.8,0.68 1.02,0.41 1.56,0.71 1.49,1.29 v 2.51 c 0,0.14 -0.1,0.24 -0.2,0.37 z" />
		<path
   id="path54"
   d="m 546.53,361.52 c 0,-1.32 -0.51,-1.53 -2.07,-1.83 -0.34,-0.1 -0.68,-0.24 -0.48,-0.65 l 0.31,-0.61 c 0.1,-0.24 0.31,-0.24 0.51,-0.24 h 4.79 v 13.65 c 0,1.32 0.51,1.53 2.17,1.87 0.44,0.07 0.51,0.34 0.37,0.61 l -0.27,0.61 c -0.1,0.14 -0.27,0.24 -0.58,0.24 h -6.89 c -0.27,0 -0.61,-0.07 -0.44,-0.51 l 0.2,-0.54 c 0.14,-0.37 0.41,-0.41 0.64,-0.47 0.85,-0.14 1.73,-0.65 1.73,-1.8 v -10.33 z m 1.39,-10.05 c 1.05,0 1.97,0.92 1.97,2 0,1.02 -0.92,1.97 -1.93,1.97 -1.12,0 -2.04,-0.88 -2.04,-1.97 0,-1.12 0.91,-2 2,-2 z" />
		<path
   id="path56"
   d="m 560.38,361.62 h 0.07 c 1.87,-3.23 4.72,-3.84 6.59,-3.84 3.12,0 4.92,1.77 4.92,5.81 v 8.25 c 0,1.32 0.51,1.53 2.17,1.87 0.44,0.07 0.51,0.34 0.37,0.61 l -0.27,0.61 c -0.1,0.14 -0.27,0.24 -0.58,0.24 h -6.86 c -0.27,0 -0.61,-0.07 -0.44,-0.51 l 0.2,-0.54 c 0.14,-0.37 0.41,-0.41 0.64,-0.47 0.82,-0.14 1.7,-0.65 1.7,-1.8 v -6.42 c 0,-3.87 -0.68,-5.47 -3.19,-5.47 -2.72,0 -5.33,2.41 -5.33,9.64 v 2.24 c 0,1.32 0.51,1.53 2.14,1.87 0.44,0.07 0.51,0.34 0.37,0.61 l -0.27,0.61 c -0.1,0.14 -0.27,0.24 -0.58,0.24 h -6.86 c -0.27,0 -0.61,-0.07 -0.44,-0.51 l 0.2,-0.54 c 0.14,-0.37 0.41,-0.41 0.64,-0.47 0.85,-0.14 1.73,-0.65 1.73,-1.8 v -10.32 c 0,-1.32 -0.51,-1.53 -2.07,-1.83 -0.34,-0.1 -0.68,-0.24 -0.48,-0.65 l 0.31,-0.61 c 0.1,-0.24 0.31,-0.24 0.51,-0.24 h 3.97 c 0.37,0 0.81,-0.03 0.81,0.68 v 2.74 z" />
		<path
   id="path58"
   d="m 594.16,366.34 c 0,5.36 -3.87,9.23 -8.86,9.23 -5.19,0 -8.01,-4.48 -8.01,-8.56 0,-6.25 4.52,-9.23 8.86,-9.23 4.78,0.01 8.01,3.88 8.01,8.56 z m -13.62,-0.64 c 0,5.47 2.72,8.28 5.3,8.28 3.8,0 5.06,-3.33 5.06,-7.2 0,-4.38 -2.07,-7.4 -5.16,-7.4 -3.23,0 -5.2,2.85 -5.2,6.32 z" />
		<path
   id="path60"
   d="m 616.66,366 c 0,3.33 0.24,6.72 4.79,6.72 2,0 4.31,-1.9 4.31,-6.89 v -10.35 c 0,-1.66 -0.51,-1.9 -2.17,-2.31 -0.44,-0.07 -0.51,-0.41 -0.37,-0.71 l 0.27,-0.78 c 0.1,-0.17 0.27,-0.27 0.58,-0.27 h 7.06 c 0.27,0 0.61,0.07 0.44,0.65 l -0.2,0.64 c -0.14,0.44 -0.41,0.48 -0.65,0.54 -0.85,0.17 -1.73,0.78 -1.73,2.24 V 366 c 0,8.59 -6.18,9.57 -8.86,9.57 -8.59,0 -10.63,-4.35 -10.63,-9.47 v -10.63 c 0,-1.66 -0.51,-1.9 -2.17,-2.31 -0.44,-0.07 -0.51,-0.41 -0.37,-0.71 l 0.27,-0.78 c 0.1,-0.17 0.27,-0.27 0.58,-0.27 h 11 c 0.27,0 0.61,0.07 0.44,0.65 l -0.2,0.64 c -0.14,0.44 -0.41,0.48 -0.64,0.54 -0.85,0.17 -1.73,0.78 -1.73,2.24 V 366 Z" />
		<path
   id="path62"
   d="m 644.03,362.78 h 7.84 c 0.44,0 0.64,0.24 0.44,0.47 l -0.85,1.43 c -0.27,0.34 -0.54,0.48 -1.09,0.48 h -6.35 v 5.94 c 0,1.66 0.51,1.9 2.17,2.31 0.44,0.07 0.51,0.41 0.37,0.71 l -0.27,0.78 c -0.1,0.17 -0.27,0.27 -0.58,0.27 h -11 c -0.27,0 -0.61,-0.07 -0.44,-0.65 l 0.2,-0.64 c 0.14,-0.44 0.41,-0.48 0.64,-0.54 0.85,-0.17 1.73,-0.78 1.73,-2.24 v -15.31 c 0,-1.6 -0.68,-2.24 -2.14,-2.51 -0.51,-0.14 -0.82,-0.24 -0.65,-0.68 l 0.27,-0.75 c 0.14,-0.34 0.37,-0.44 0.58,-0.44 h 17.15 c 0.65,0 1.05,0.37 0.98,0.85 v 3.06 c 0,0.1 -0.07,0.2 -0.17,0.31 l -0.61,0.51 c -0.51,0.41 -1.02,-2.34 -3.29,-2.34 H 644 v 8.98 z" />
		<path
   id="path64"
   d="m 669.52,356.7 c -0.27,0.24 -0.92,-1.15 -1.36,-2.04 -0.65,-1.26 -1.7,-1.77 -2.85,-1.77 -0.88,0 -2.48,0.64 -2.75,2.38 -0.37,2.44 1.46,3.57 4.24,5.43 3.7,2.48 5.87,4.48 5.98,7.64 0.17,4.99 -4.18,7.23 -10.12,7.23 -2.07,0 -4.35,-0.24 -5.57,-0.61 -1.77,-0.54 -1.77,-0.58 -1.77,-1.46 v -3.29 c 0,-0.37 -0.14,-0.88 0.2,-1.02 l 1.32,-0.51 c 0.24,-0.07 0.64,1.26 1.43,2.65 0.68,1.12 1.7,1.9 2.92,1.9 2.17,0 4.24,-1.26 4.35,-3.63 0.1,-2.82 -2.38,-3.87 -5.91,-6.35 -2,-1.43 -4.55,-2.78 -4.55,-6.18 0,-3.23 3.02,-6.08 9.81,-6.08 2.41,0 3.63,0.27 4.65,0.68 1.02,0.41 1.56,0.71 1.49,1.29 v 2.51 c 0,0.14 -0.1,0.24 -0.2,0.37 z" />
		<path
   id="path66"
   d="m 695.93,373.34 c -0.2,0.44 -0.34,0.85 -0.68,1.09 -0.82,0.65 -2.95,1.15 -5.94,1.15 -8.42,0 -13.72,-5.09 -13.72,-12.49 0,-6.65 5.57,-12.09 13.44,-12.09 3.53,0 6.89,1.12 8.01,1.94 0.14,0.1 0.17,0.24 0.17,0.47 v 2.55 c 0,0.17 -0.14,0.41 -0.27,0.47 l -1.36,0.82 c -0.51,0.34 -2.41,-3.77 -6.62,-3.77 -4.14,0 -5.98,3.8 -5.98,9.34 0,6.79 2.78,9.71 7.4,9.71 1.39,0 4.14,-0.71 5.57,-2.78 0.37,-0.54 1.32,0.14 1.19,0.41 z" />
		<path
   id="path68"
   d="m 712.53,371.74 h -0.07 c -1.09,1.93 -3.77,3.84 -6.31,3.84 -4.07,0 -6.59,-3.8 -6.59,-7.88 0,-5.36 4.21,-9.91 11.34,-9.91 3.16,0 4.79,0.37 6.25,0.92 1.19,0.54 2.17,0.64 2.17,2.85 v 9.61 c 0,1.73 -0.07,1.97 1.73,2.38 0.37,0.07 0.2,0.44 0.17,0.58 l -0.27,0.78 c -0.03,0.17 -0.31,0.27 -0.51,0.27 h -6.96 c -0.68,0.03 -0.95,-0.37 -0.95,-1.05 z m -5.87,-5.43 c 0,2.78 0.92,5.06 2.41,5.06 1.36,0 2.55,-1.66 2.99,-3.87 0.31,-1.43 0.48,-2.21 0.48,-2.89 0,-2.44 -0.54,-4.52 -2.41,-4.52 -2.18,0 -3.47,3.23 -3.47,6.22 z" />
		<path
   id="path70"
   d="m 723.39,358.46 c 0.1,-0.27 0.41,-0.27 0.68,-0.27 h 7.16 c 0.37,0 0.82,-0.03 0.82,0.68 v 1.8 h 0.07 c 1.12,-1.53 2.72,-2.89 4.52,-2.89 0.95,0 1.6,0.51 1.87,1.19 l 1.09,2.55 c 0.07,0.2 0.03,0.37 -0.1,0.51 l -2.31,2.21 c -0.54,0.51 -2.44,-0.95 -3.26,-0.95 -0.82,0 -1.87,-0.24 -1.87,4.82 v 2.99 c 0,1.66 0.68,1.9 2.85,2.31 0.61,0.07 0.68,0.41 0.51,0.71 l -0.37,0.78 c -0.14,0.17 -0.34,0.27 -0.75,0.27 h -10.83 c -0.27,0 -0.61,-0.07 -0.44,-0.65 l 0.2,-0.64 c 0.14,-0.44 0.41,-0.48 0.64,-0.54 0.85,-0.17 1.39,-0.78 1.39,-2.24 v -8.83 c 0,-1.66 -0.14,-1.9 -1.7,-2.27 -0.34,-0.1 -0.68,-0.31 -0.48,-0.75 z" />
	</g>
	<g
   id="g82">
		<path
   id="path74"
   d="m 376.87,261.06 c 0.38,-2.17 -0.11,-3.09 -2.01,-3.53 -0.76,-0.22 -1.19,-0.54 -0.87,-1.09 l 0.92,-1.84 c 0.16,-0.33 0.38,-0.65 0.65,-0.65 h 24.58 c 0.81,0 2.12,0.22 2.01,0.98 l -0.76,4.83 c -0.11,0.43 -0.22,0.76 -0.43,0.98 l -2.01,1.41 c -1.57,1.14 -1.36,-4.5 -4.56,-4.5 h -5.1 l -2.5,13.62 h 10.15 c 0.54,0 0.49,0.33 0.33,0.87 l -0.87,2.82 c -0.33,0.6 -0.81,0.65 -1.52,0.65 h -8.74 l -1.63,9.55 c -0.65,3.64 0.54,2.98 2.55,3.53 0.54,0.11 0.6,0.49 0.33,0.98 l -0.87,1.57 c -0.27,0.43 -0.54,0.71 -1.14,0.71 h -16.6 c -0.6,0 -0.98,-0.38 -0.76,-0.81 l 0.92,-1.74 c 0.16,-0.33 0.33,-0.49 0.76,-0.71 1.41,-0.54 2.55,-0.16 3.09,-3.53 z"
   class="st0" />
		<path
   id="path76"
   d="m 430.59,253.95 c 0.81,0 2.12,0.22 2.01,0.98 l -0.76,4.83 c -0.11,0.43 -0.22,0.76 -0.43,0.98 l -2.01,1.41 c -1.57,1.14 -1.36,-4.5 -4.56,-4.5 h -5.1 l -2.22,11.72 h 10.15 c 0.54,0 0.71,0.33 0.38,0.81 l -1.03,2.82 c -0.33,0.6 -0.81,0.71 -1.52,0.71 h -8.74 l -1.36,9.01 c -0.81,4.56 -0.16,5.53 2.66,5.53 h 3.15 c 3.58,0 4.67,-5.48 5.64,-5.05 l 2.88,0.87 c 0.22,0.05 0.27,0.27 0.22,0.49 l -0.81,4.88 c -0.38,2.17 -2.55,2.5 -3.74,2.5 h -19.21 c -2.82,0 -3.96,-0.71 -3.31,-4.45 l 4.45,-26.42 c 0.38,-2.17 -0.11,-3.09 -2.01,-3.53 -0.76,-0.22 -1.19,-0.54 -0.87,-1.09 l 0.92,-1.84 c 0.16,-0.33 0.38,-0.65 0.65,-0.65 h 24.57 z"
   class="st0" />
		<path
   id="path78"
   d="m 449.3,282.71 c -0.76,4.56 -0.11,5.53 2.71,5.53 h 3.15 c 3.58,0 4.67,-5.48 5.64,-5.05 l 2.88,0.87 c 0.22,0.05 0.27,0.27 0.22,0.49 l -0.81,4.88 c -0.38,2.17 -2.55,2.5 -3.74,2.5 H 433.2 c -0.6,0 -0.98,-0.38 -0.76,-0.81 l 0.92,-1.74 c 0.16,-0.33 0.33,-0.49 0.76,-0.71 1.41,-0.54 2.55,-0.16 3.09,-3.53 l 4.12,-24.42 c 0.65,-3.64 -0.54,-2.98 -2.55,-3.53 -0.54,-0.11 -0.6,-0.49 -0.38,-0.92 l 0.81,-1.46 c 0.33,-0.6 0.65,-0.87 1.14,-0.87 h 16.66 c 0.98,0 0.87,0.49 0.65,1.03 l -0.76,1.46 c -0.16,0.38 -0.33,0.54 -0.81,0.76 -1.46,0.54 -2.6,0.16 -3.09,3.53 z"
   class="st0" />
		<path
   id="path80"
   d="m 470.73,279.88 c 0.38,-0.11 1.41,3.58 2.93,5.37 1.63,1.9 2.44,2.66 4.56,2.66 3.69,0 4.78,-3.09 4.78,-4.88 0,-3.36 -3.58,-7.43 -5.75,-10.2 -1.95,-2.5 -5.53,-5.05 -5.53,-9.6 0,-5.43 4.39,-9.93 15.68,-9.93 3.69,0 6.46,0.49 8.46,0.98 1.3,0.33 2.12,1.03 1.95,1.95 l -0.98,5.7 c -0.05,0.22 -0.22,0.38 -0.38,0.49 l -2.06,1.19 c -0.49,0.27 -0.92,-0.6 -1.57,-1.9 -1.03,-2.12 -2.17,-4.83 -5.05,-4.83 -1.79,0 -3.53,2.06 -3.53,3.8 0,4.45 2.6,5.81 6.08,10.85 2.93,4.29 5.1,7.49 5.1,11.01 0,4.61 -3.26,10.04 -16.12,10.04 -4.02,0 -7.38,-0.71 -8.63,-1.19 -1.52,-0.6 -3.2,-0.54 -3.15,-1.95 l 0.38,-7.22 c 0.05,-0.6 0.11,-1.41 0.54,-1.63 z"
   class="st0" />
	</g>
	<g
   id="g96">
		<g
   id="g94">
			<path
   id="path84"
   d="m 251.63,221.72 c 0,0 -26.47,6.36 -39.07,26.9 -9.54,15.54 -9.4,30.86 -9.39,44.08 0.02,18.58 -12.27,26.11 -12.27,26.11 l -0.94,18.84 c 0,0 -38.92,-31.06 -29.33,-39.37 9.59,-8.32 25.2,-7.13 25.2,-7.13 0,0 -40.05,-39.04 -14.48,-55.5 25.57,-16.47 81.23,-13.92 81.23,-13.92"
   class="st1" />
			<path
   id="path86"
   d="m 226.96,201.4 c 0,0 42.34,7.62 52.59,31.79 11.03,26.03 3.52,46.24 12.2,59.95 4.92,7.79 8.34,10.94 8.34,10.94 l 2.84,20.7 c 0,0 26.64,-24.65 30.45,-47.16 2.32,-13.22 -34.74,-21.61 -34.74,-21.61 0,0 18.52,-39.12 13.73,-48.05 -4.81,-8.93 -54.97,-11.39 -85.41,-6.56 z"
   class="st2" />
			<g
   id="g92">
				<path
   id="path88"
   d="m 239.33,337.69 c 4.8,-1.47 6.86,-3.62 -1.41,-9.31 -0.2,-0.16 -0.2,-0.33 0,-0.5 2.11,-1.46 24.7,-5.77 24.5,-7.31 -0.16,-1.24 -1.77,-2.58 -3.74,-3.93 -4.35,0.09 -8.94,0.31 -13.66,0.68 -27.53,2.14 -49.41,8.34 -48.88,13.84 0.47,4.97 19.19,7.66 43.19,6.53 z"
   class="st3" />
				<path
   id="path90"
   d="m 267.06,316.61 c 1.45,0.89 2.61,1.65 3,2.16 3.22,4.29 -22.84,10 -23.15,9.8 5.82,3.77 6.53,6.34 4.76,8.22 25.24,-2.45 44.62,-8.24 44.13,-13.42 -0.37,-3.92 -12.07,-6.42 -28.74,-6.76 z"
   class="st3" />
			</g>
		</g>
	</g>
</g>
</svg>
